<?xml version="1.0" encoding="UTF-8" standalone="no"?>
<svg xmlns:dc="http://purl.org/dc/elements/1.1/" xmlns:cc="http://creativecommons.org/ns#" xmlns:rdf="http://www.w3.org/1999/02/22-rdf-syntax-ns#" xmlns:svg="http://www.w3.org/2000/svg" xmlns="http://www.w3.org/2000/svg" viewBox="0 0 471.30933 96.134399" height="96.134399" width="471.30933" xml:space="preserve" id="svg2" version="1.1">
  <metadata id="metadata8"></metadata>
  <defs id="defs6"></defs>
  <g transform="matrix(1.3333333,0,0,-1.3333333,0,96.134398)" id="g10">
    <g transform="scale(0.1)" id="g12">
      <path id="path14" style="fill:#ffffff;fill-opacity:1;fill-rule:nonzero;stroke:none" d="M 0,15 H 120.996 V 516.25 H 0 Z"></path>
      <path id="path16" style="fill:#ffffff;fill-opacity:1;fill-rule:nonzero;stroke:none" d="M 590.168,516.25 V 417.566 H 460.238 V 15 H 338.109 V 417.566 H 203.223 v 98.684 h 386.945"></path>
      <path id="path18" style="fill:#b5dc17;fill-opacity:1;fill-rule:nonzero;stroke:none" d="M 632.816,15 H 787.988 V 179.172 H 632.816 Z"></path>
      <path id="path20" style="fill:#ffffff;fill-opacity:1;fill-rule:nonzero;stroke:none" d="m 1570.84,515 -150,-500 h -119 l -90,319.004 L 1116.84,15 H 997.836 l -145,500 h 125 l 87.004,-342.004 93,342.004 h 107 l 92,-342.004 89,342.004 h 125"></path>
      <path id="path22" style="fill:#ffffff;fill-opacity:1;fill-rule:nonzero;stroke:none" d="m 1864.93,422.004 c -10.99,0 -40.99,-2.004 -68.01,-19.008 C 1770.93,386.008 1735.93,345 1735.93,270 c 0,-23.992 3,-45 10,-67.996 9,-24.008 43.01,-92.004 125,-92.004 90.99,0 130.99,80 129,159.004 -3.01,78 -47,153 -135,153 z M 2104.93,155 c -20,-50.996 -85,-155 -234,-155 -21,0 -64.01,2.00391 -113,23 -52,24.0039 -147,92.996 -147,244.004 0,54.004 14,94.004 22,112 20,50 85,150.996 233.99,150.996 19.01,0 63.01,-2.004 110,-22.996 54.01,-23 147.02,-90 148.01,-240 0,-18 -0.99,-65 -20,-112.004"></path>
      <path id="path24" style="fill:#ffffff;fill-opacity:1;fill-rule:nonzero;stroke:none" d="m 2331.84,444.004 c 8,15 18,30 30,40.996 40,39.004 105,41.008 119,41.008 h 10 V 402.996 c -25,0 -121,0 -150,-91.988 -9,-28.012 -9,-53.012 -9,-82.004 V 15 h -116 v 500 h 116 v -70.996"></path>
      <path id="path26" style="fill:#ffffff;fill-opacity:1;fill-rule:nonzero;stroke:none" d="m 2688.83,324.004 195,190.996 h 153.01 L 2845.83,324.004 3055.83,15 h -146 l -151,224.004 -70,-69.004 V 15 h -119.01 v 706.008 h 119.01 V 324.004"></path>
      <path id="path28" style="fill:#ffffff;fill-opacity:1;fill-rule:nonzero;stroke:none" d="m 3436.83,357.996 c -10.01,21.008 -23,33.012 -31.01,40 -31,27.004 -64,36.008 -105,36.008 -5,0 -39,0 -61,-15 -18,-12 -22,-27.996 -22,-37 1.01,-17.004 13,-29.008 16.01,-30.996 12.99,-10 45.99,-18.012 85.99,-25 27,-5 54.01,-9.004 81,-15 27,-6.008 57,-15 79,-31.008 18,-12.996 55,-47.996 55,-109.004 0,-23.992 -5.99,-46.992 -17,-68 C 3493.83,57.0039 3431.83,0 3309.82,0 c -94,0 -160.99,32.0039 -192,50.9961 -17,11.0078 -33,24.0039 -48,39.0039 l 90,72.996 c 4.01,-5 10,-13.992 23,-25 43,-37 107,-38.9921 121.01,-38.9921 30,0 65,6.9921 85,30.0001 7.99,8 12.99,18.992 12.99,28.992 0,4.008 -1,12.004 -7.99,21.008 -13.01,18 -29.01,18.992 -66.01,26.992 -33,7 -66,11.008 -98,19.004 -22,5.996 -137,34.004 -138,142.004 1,37.996 16,65.992 23,77 25,38.992 84.01,85.996 192,85.996 39,0 140.01,-5.996 215.01,-92.996 l -85,-79.008"></path>
    </g>
  </g>
</svg>
